<?xml version="1.0" standalone="no"?>
<!DOCTYPE svg PUBLIC "-//W3C//DTD SVG 20010904//EN"
 "http://www.w3.org/TR/2001/REC-SVG-20010904/DTD/svg10.dtd">
<svg version="1.0" xmlns="http://www.w3.org/2000/svg"
 width="117.000000pt" height="117.000000pt" viewBox="0 0 117.000000 117.000000"
 preserveAspectRatio="xMidYMid meet">
<metadata>
Created by potrace 1.14, written by Peter Selinger 2001-2017
</metadata>
<g transform="translate(0.000000,117.000000) scale(0.100000,-0.100000)"
fill="#000000" stroke="none">
<path d="M260 1016 c0 -19 -5 -26 -20 -26 -19 0 -20 -7 -20 -235 l0 -235 390
0 390 0 0 235 c0 226 -1 235 -19 235 -13 0 -21 8 -23 23 -3 22 -4 22 -168 21
-91 -1 -172 -2 -180 -2 -8 0 -90 2 -182 4 l-168 5 0 -25z m324 -22 c3 -9 6
-102 6 -207 l0 -192 -150 3 -150 3 0 205 0 204 144 0 c122 0 145 -2 150 -16z
m346 -189 l0 -205 -139 0 c-77 0 -146 -3 -155 -6 -14 -5 -16 16 -16 193 0 141
3 202 12 211 8 8 57 12 155 12 l143 0 0 -205z m-670 -40 l0 -195 160 0 c100 0
160 -4 160 -10 0 -6 -63 -10 -170 -10 l-170 0 0 205 c0 130 4 205 10 205 6 0
10 -72 10 -195z m720 -10 l0 -205 -177 0 c-222 0 -224 18 -3 22 l155 3 3 193
c1 116 6 192 12 192 6 0 10 -78 10 -205z"/>
<path d="M314 971 c-16 -16 12 -21 126 -21 80 0 130 4 130 10 0 6 -3 10 -7 10
-51 4 -246 4 -249 1z"/>
<path d="M313 918 c3 -10 37 -13 127 -13 90 0 124 3 128 13 3 9 -27 12 -128
12 -101 0 -131 -3 -127 -12z"/>
<path d="M317 884 c-19 -20 4 -24 124 -24 100 0 130 3 127 13 -5 13 -238 24
-251 11z"/>
<path d="M313 828 c3 -10 37 -13 127 -13 90 0 124 3 128 13 3 9 -27 12 -128
12 -101 0 -131 -3 -127 -12z"/>
<path d="M317 794 c-19 -20 4 -24 124 -24 100 0 130 3 127 13 -5 13 -238 24
-251 11z"/>
<path d="M310 740 c0 -6 50 -10 130 -10 80 0 130 4 130 10 0 6 -50 10 -130 10
-80 0 -130 -4 -130 -10z"/>
<path d="M310 695 c0 -13 21 -15 130 -15 109 0 130 2 130 15 0 13 -21 15 -130
15 -109 0 -130 -2 -130 -15z"/>
<path d="M310 650 c0 -6 50 -10 130 -10 80 0 130 4 130 10 0 6 -50 10 -130 10
-80 0 -130 -4 -130 -10z"/>
<path d="M773 972 c-167 -4 -161 -22 7 -22 75 0 130 4 130 9 0 15 -8 16 -137
13z"/>
<path d="M650 915 c0 -13 18 -15 127 -13 90 2 128 7 131 16 3 9 -27 12 -127
12 -111 0 -131 -2 -131 -15z"/>
<path d="M650 875 c0 -13 20 -15 124 -15 69 0 127 4 130 9 10 16 -24 21 -140
21 -95 0 -114 -3 -114 -15z"/>
<path d="M650 825 c0 -13 18 -15 127 -13 90 2 128 7 131 16 3 9 -27 12 -127
12 -111 0 -131 -2 -131 -15z"/>
<path d="M650 785 c0 -13 17 -15 128 -13 167 4 165 22 -3 26 -108 2 -125 0
-125 -13z"/>
<path d="M650 740 c0 -6 47 -10 120 -10 66 0 123 0 127 -1 4 0 9 4 11 10 3 8
-38 11 -127 11 -81 0 -131 -4 -131 -10z"/>
<path d="M650 695 c0 -13 17 -15 128 -13 167 4 165 22 -3 26 -108 2 -125 0
-125 -13z"/>
<path d="M650 650 c0 -6 50 -10 130 -10 80 0 130 4 130 10 0 6 -50 10 -130 10
-80 0 -130 -4 -130 -10z"/>
<path d="M286 401 c-19 -7 -19 -8 -1 -14 16 -7 17 -17 11 -112 l-7 -105 33 0
c29 1 31 2 14 11 -17 10 -18 20 -11 120 7 115 6 118 -39 100z"/>
<path d="M446 401 c-18 -7 -18 -8 -3 -14 12 -4 17 -18 17 -42 0 -32 -2 -35
-30 -35 -54 0 -95 -71 -66 -115 14 -21 23 -24 83 -24 52 0 64 3 50 11 -17 9
-18 19 -12 119 7 116 7 118 -39 100z m14 -145 c0 -66 -62 -91 -68 -28 -4 40
12 62 44 62 21 0 24 -5 24 -34z"/>
<path d="M774 378 c-2 -4 4 -9 14 -12 14 -5 25 -31 42 -101 14 -52 29 -96 35
-99 6 -2 21 26 34 61 26 72 30 70 52 -15 7 -29 17 -51 23 -49 5 2 25 49 45
105 21 59 42 103 51 106 8 2 3 4 -12 5 -40 1 -43 0 -40 -12 5 -15 -29 -127
-38 -127 -4 0 -14 27 -23 60 -10 33 -20 60 -25 60 -4 0 -18 -30 -31 -67 l-25
-68 -18 60 c-21 71 -22 85 -6 85 6 0 8 3 5 6 -9 9 -78 11 -83 2z"/>
<path d="M161 284 c-25 -32 -27 -61 -5 -92 18 -26 70 -30 100 -7 18 14 16 15
-23 9 -35 -5 -43 -3 -52 14 -19 35 -13 42 34 42 37 0 45 3 45 18 0 47 -66 58
-99 16z m69 -8 c0 -9 -8 -12 -25 -8 -28 5 -24 22 6 22 10 0 19 -6 19 -14z"/>
<path d="M523 299 c-16 -6 -17 -7 -1 -14 14 -5 16 -17 12 -64 l-5 -58 31 5
c26 4 28 6 15 16 -12 8 -15 24 -13 51 3 35 6 40 31 43 15 2 27 10 27 17 0 15
-61 17 -97 4z"/>
<path d="M652 287 c-24 -26 -30 -85 -10 -105 16 -16 80 -15 102 1 25 19 33 89
11 110 -24 25 -77 22 -103 -6z m76 -9 c7 -7 12 -27 12 -45 0 -26 -6 -36 -25
-45 -33 -15 -55 4 -55 46 0 35 15 56 40 56 9 0 21 -5 28 -12z"/>
</g>
</svg>
